<?xml version="1.0" standalone="no"?>
<!DOCTYPE svg PUBLIC "-//W3C//DTD SVG 20010904//EN"
 "http://www.w3.org/TR/2001/REC-SVG-20010904/DTD/svg10.dtd">
<svg version="1.0" xmlns="http://www.w3.org/2000/svg"
 width="515.000000pt" height="108.000000pt" viewBox="0 0 515.000000 108.000000"
 preserveAspectRatio="xMidYMid meet">
<metadata>
Created by potrace 1.16, written by Peter Selinger 2001-2019
</metadata>
<g transform="translate(0.000000,108.000000) scale(0.100000,-0.100000)"
fill="#000000" stroke="none">
<path d="M850 939 c-135 -10 -261 -20 -280 -22 -49 -6 473 2 543 9 52 5 57 3
57 -16 0 -19 -6 -20 -87 -21 -49 -1 -214 -7 -368 -14 l-280 -12 368 -2 c305
-1 367 -3 367 -15 0 -18 -63 -24 -345 -32 -353 -11 -347 -21 13 -23 271 -1
332 -3 332 -14 0 -15 -61 -19 -465 -34 l-210 -8 335 -5 c289 -4 335 -7 335
-20 0 -16 -33 -18 -520 -35 -115 -4 -212 -9 -214 -11 -2 -2 162 -4 365 -4 332
0 416 -5 387 -23 -11 -7 -411 -27 -542 -27 -52 0 -92 -2 -89 -5 2 -3 144 -8
314 -11 170 -4 311 -8 313 -10 18 -16 -58 -24 -369 -37 l-355 -14 354 -1 c332
-1 391 -6 368 -28 -3 -4 -151 -13 -328 -20 -177 -7 -324 -15 -327 -18 -3 -3
144 -6 326 -6 288 0 332 -2 332 -15 0 -16 -83 -18 -515 -15 -93 1 -167 -2
-163 -6 6 -5 548 -32 676 -34 22 0 32 -5 32 -15 0 -18 38 -18 -405 0 -198 8
-388 15 -423 15 l-62 0 16 -25 c14 -21 24 -25 69 -25 29 0 67 -3 84 -6 58 -12
31 -24 -54 -24 -50 0 -85 -4 -85 -10 0 -5 26 -10 58 -10 80 0 102 -8 102 -35
0 -41 22 -86 47 -96 39 -15 99 -11 123 9 13 11 23 33 27 60 l6 42 58 0 c57 0
58 0 69 -35 14 -43 35 -55 92 -55 51 0 83 19 92 55 5 20 13 25 36 25 17 0 39
-9 50 -20 12 -12 33 -20 54 -20 30 0 34 -4 40 -32 3 -17 14 -40 23 -50 18 -20
73 -24 103 -8 37 20 53 149 26 214 -17 40 -64 75 -111 83 -34 6 -35 7 -35 53
0 29 -5 50 -12 53 -10 4 -10 6 0 6 10 1 11 42 6 196 l-7 195 39 0 c21 0 80 -4
129 -9 50 -5 131 -12 180 -16 122 -8 121 -8 133 -63 l10 -47 1 57 c1 69 27 60
-244 87 -234 25 -271 24 -595 0z"/>
<path d="M1280 666 c0 -39 5 -67 13 -73 26 -20 101 -43 110 -34 5 5 6 44 2 90
l-7 81 -59 0 -59 0 0 -64z"/>
<path d="M1434 663 c11 -124 5 -118 159 -132 96 -9 222 0 238 16 6 6 3 41 -8
94 l-18 84 -189 3 -189 2 7 -67z"/>
<path d="M1397 353 c7 -5 13 -39 15 -78 l3 -70 88 -3 c76 -2 87 -5 87 -21 0
-59 100 -84 139 -35 12 15 21 33 21 40 0 10 16 14 59 14 44 0 60 4 65 16 10
25 6 41 -5 22 -9 -16 -31 -18 -224 -18 l-214 0 -3 67 c-3 59 -6 68 -23 71 -13
2 -16 0 -8 -5z"/>
</g>
</svg>
